<svg class="" data-name="Ebene 1" xmlns="http://www.w3.org/2000/svg" xmlns:xlink="http://www.w3.org/1999/xlink" viewBox="0 0 337.6 65.33"><defs><style>.cls-1{fill:none;}.cls-2{clip-path:url(#clip-path);}.cls-3{fill:#293049;}.cls-4{fill: #f18822;}  .cls-5{clip-path:url(#clip-path-3);}  .cls-6{fill:url(#Unbenannter_Verlauf_2);}</style><clipPath id="clip-path" transform="translate(-0.19 17.25)"><rect class="cls-1" x="0.19" y="-17.25" width="337.6" height="65.33"/></clipPath><clipPath id="clip-path-3" transform="translate(-0.19 17.25)"><path class="cls-1" d="M41,18a17.71,17.71,0,0,0,5.21,12.55,27.92,27.92,0,0,1,3.55-5.72,11.31,11.31,0,1,1,18,0,27.51,27.51,0,0,1,3.54,5.72A17.76,17.76,0,1,0,41,18"/></clipPath><linearGradient id="Unbenannter_Verlauf_2" x1="-496.09" y1="397.95" x2="-495.09" y2="397.95" gradientTransform="matrix(35.45, 0, 0, -35.45, 17623.02, 14120.82)" gradientUnits="userSpaceOnUse"><stop offset="0" stop-color="#f18822"/><stop offset="0" stop-color="#f18822"/><stop offset="0.34" stop-color="#f18622"/><stop offset="0.52" stop-color="#f07e23"/><stop offset="0.66" stop-color="#ee7125"/><stop offset="0.78" stop-color="#eb5d27"/><stop offset="0.89" stop-color="#e8452a"/><stop offset="0.95" stop-color="#e6352c"/><stop offset="1" stop-color="#e6352c"/></linearGradient></defs><g class="cls-2"><path class="cls-3" d="M27.39,24.83c0,6-4.6,10.8-13.5,10.8A18.55,18.55,0,0,1,.19,30l3.2-5.6A14.82,14.82,0,0,0,14,29.23c4.45,0,7-1.65,7-4s-2.4-3.55-6.8-4.2c-9.55-1.45-12.8-5-12.8-10.1C1.39,5.32,5.94.42,14.29.42a18,18,0,0,1,11.5,4.1L23.09,10a14.18,14.18,0,0,0-8.9-3.2c-3.4,0-6.4.95-6.4,3.65,0,2.3,2,3.16,6.8,4,7.35,1.2,12.8,3.2,12.8,10.4" transform="translate(-0.19 17.25)"/></g><polygon class="cls-3" points="89.2 18.47 96.4 18.47 105.2 40.88 114 18.47 121.2 18.47 107.6 52.08 102.8 52.08 89.2 18.47"/><polygon class="cls-3" points="142.8 24.87 142.8 32.07 154.8 32.07 154.8 38.48 142.8 38.48 142.8 45.67 157.2 45.67 157.2 52.08 136.4 52.08 136.4 18.47 157.2 18.47 157.2 24.87 142.8 24.87"/><polygon class="cls-3" points="204.4 18.47 204.4 52.08 198 52.08 181.2 28.87 181.2 52.08 174.8 52.08 174.8 18.47 181.2 18.47 198 41.67 198 18.47 204.4 18.47"/><g class="cls-2"><path class="cls-3" d="M245.39,18c0-5.76-4.1-10.41-10.1-10.41h-5.9V28.43h5.9c6,0,10.1-4.65,10.1-10.4m6.4,0c0,9.3-6.4,16.8-17.65,16.8H223V1.22h11.15c11.55,0,17.65,7.5,17.65,16.81" transform="translate(-0.19 17.25)"/><path class="cls-3" d="M294.59,1.22v19.2c0,8.86-5,15.21-13.6,15.21-8.8,0-13.6-6.35-13.6-15.21V1.22h6.4v20c0,4.8,3.2,8,7.2,8s7.2-3.2,7.2-8v-20Z" transform="translate(-0.19 17.25)"/><path class="cls-3" d="M337.79,24.83c0,6-4.6,10.8-13.5,10.8a18.55,18.55,0,0,1-13.7-5.6l3.2-5.6a14.82,14.82,0,0,0,10.6,4.8c4.45,0,7-1.65,7-4s-2.4-3.55-6.8-4.2c-9.55-1.45-12.8-5-12.8-10.1,0-5.61,4.55-10.51,12.9-10.51a18,18,0,0,1,11.5,4.1l-2.7,5.5a14.18,14.18,0,0,0-8.9-3.2c-3.4,0-6.4.95-6.4,3.65,0,2.3,1.95,3.16,6.8,4,7.35,1.2,12.8,3.2,12.8,10.4" transform="translate(-0.19 17.25)"/><path class="cls-4" d="M64.42,18a5.63,5.63,0,1,1-5.63-5.64A5.63,5.63,0,0,1,64.42,18" transform="translate(-0.19 17.25)"/><path class="cls-4" d="M63.79,28.17a11.38,11.38,0,0,1-10,0,22.76,22.76,0,0,0-3.25,5.57,17.59,17.59,0,0,0,16.52,0,22.43,22.43,0,0,0-3.26-5.57" transform="translate(-0.19 17.25)"/></g><g class="cls-5"><rect class="cls-6" x="35.75" y="-7.95" width="46.08" height="46.72" transform="translate(9 67.79) rotate(-50)"/></g></svg>
